# xmcd
#
# Track frame offsets: 
#        150
#        14243
#        31908
#        45830
#        65494
#        81934
#        103136
#        121926
#        139250
#        163448
#        180728
#        196438
#
# Disc length: 2832 seconds
#
# Revision: 0
# Processed by: cddbd v1.5.2PL0 Copyright (c) Steve Scherf et al.
# Submitted via: ExactAudioCopy v0.99pb4
#
DISCID=ab0b0e0c
DTITLE=Nick Woodland - Cult Factory Vol. 1 - Authentic Heads
DYEAR=2008
DGENRE=Rock
TTITLE0=Blue To Me
TTITLE1=The Local
TTITLE2=Shakes
TTITLE3=Guy From Arosa
TTITLE4=Boots
TTITLE5=Little Puppet
TTITLE6=Can't Take It
TTITLE7=Low Man
TTITLE8=Devlyn
TTITLE9=Lucy Malone
TTITLE10=Dirty Pool
TTITLE11=Lonely Song
EXTD=
EXTT0=
EXTT1=
EXTT2=
EXTT3=
EXTT4=
EXTT5=
EXTT6=
EXTT7=
EXTT8=
EXTT9=
EXTT10=
EXTT11=
PLAYORDER=
